<?xml version="1.0" encoding="UTF-8" standalone="no"?>
<svg version="1.0" width="580" height="580" xmlns="http://www.w3.org/2000/svg">
 <metadata id="metadata2975"/>
 <path id="path2336" d="M 283.49805 70.710938 L 283.49805 104.04492 L 305.47266 104.04492 L 305.47266 70.710938 L 283.49805 70.710938 z M 305.47266 104.04492 L 305.47266 140.71094 L 318.14648 140.71094 L 318.14648 104.04492 L 305.47266 104.04492 z M 305.47266 140.71094 L 283.49805 140.71094 L 283.49805 177.37891 L 305.47266 177.37891 L 305.47266 140.71094 z M 305.47266 177.37891 L 305.47266 214.04688 L 318.14648 214.04688 L 318.14648 177.37891 L 305.47266 177.37891 z M 305.47266 214.04688 L 283.49805 214.04688 L 283.49805 250.71484 L 305.47266 250.71484 L 305.47266 214.04688 z M 305.47266 250.71484 L 305.47266 287.38281 L 318.14648 287.38281 L 318.14648 250.71484 L 305.47266 250.71484 z M 305.47266 287.38281 L 283.49805 287.38281 L 283.49805 324.04883 L 305.47266 324.04883 L 305.47266 287.38281 z M 305.47266 324.04883 L 305.47266 360.7168 L 318.14648 360.7168 L 318.14648 324.04883 L 305.47266 324.04883 z M 305.47266 360.7168 L 283.49805 360.7168 L 283.49805 397.38477 L 305.47266 397.38477 L 305.47266 360.7168 z M 305.47266 397.38477 L 305.47266 434.05273 L 318.14648 434.05273 L 318.14648 397.38477 L 305.47266 397.38477 z M 305.47266 434.05273 L 283.49805 434.05273 L 283.49805 470.7207 L 305.47266 470.7207 L 305.47266 434.05273 z M 305.47266 470.7207 L 305.47266 507.38867 L 318.14648 507.38867 L 318.14648 470.7207 L 305.47266 470.7207 z M 452.14453 73.376953 C 432.89477 74.845517 419.69933 87.359867 417.38086 104.04492 L 452.14453 104.04492 L 452.14453 73.376953 z M 452.14453 104.04492 L 452.14453 140.71094 L 465.82422 140.71094 C 478.81114 134.99157 487.20714 122.92942 487.40039 108.75391 C 487.28291 107.11609 486.94551 105.59715 486.66992 104.04492 L 452.14453 104.04492 z M 452.14453 140.71094 L 437.78516 140.71094 C 442.17638 142.79683 446.99966 144.05839 452.14453 144.13086 L 452.14453 140.71094 z M 145.625 73.619141 C 136.15491 74.35018 128.17682 77.986014 122.13477 83.388672 L 122.13477 104.04492 L 158.80273 104.04492 L 158.80273 76.207031 C 154.74686 74.59887 150.32369 73.68087 145.625 73.619141 z M 158.80273 104.04492 L 158.80273 140.71094 L 161.02734 140.71094 C 173.38163 134.87111 181.41201 123.35412 181.60742 109.48047 C 181.4673 107.58694 181.09714 105.82209 180.75195 104.04492 L 158.80273 104.04492 z M 158.80273 140.71094 L 130.03516 140.71094 C 134.747 143.15383 139.98374 144.65943 145.625 144.73633 C 150.3763 144.39886 154.76929 143.2931 158.80273 141.67773 L 158.80273 140.71094 z M 122.13477 104.04492 L 110.82617 104.04492 C 110.53823 105.82702 110.27331 107.61917 110.24805 109.48047 C 111.07588 120.04692 115.51216 128.95801 122.13477 135.20312 L 122.13477 104.04492 z M 122.13477 150.78516 L 122.13477 177.37891 L 158.80273 177.37891 L 158.80273 151.10352 L 122.13477 150.78516 z M 158.80273 177.37891 L 158.80273 214.04688 L 188.46289 214.04688 L 185 201.67969 L 195.4707 201.67969 L 195.4707 177.37891 L 158.80273 177.37891 z M 195.4707 177.37891 L 222.43555 177.37891 C 219.73118 172.68822 215.8159 168.10168 210.44141 163.63672 C 205.67683 159.7165 200.67082 156.79008 195.4707 154.76172 L 195.4707 177.37891 z M 158.80273 214.04688 L 122.13477 214.04688 L 122.13477 250.71484 L 158.80273 250.71484 L 158.80273 214.04688 z M 158.80273 250.71484 L 158.80273 287.38281 L 195.4707 287.38281 L 195.4707 250.71484 L 158.80273 250.71484 z M 195.4707 250.71484 L 198.73047 250.71484 L 195.4707 239.07617 L 195.4707 250.71484 z M 195.4707 287.38281 L 195.4707 324.04883 L 219.26172 324.04883 L 208.99609 287.38281 L 195.4707 287.38281 z M 195.4707 324.04883 L 158.80273 324.04883 L 158.80273 360.7168 L 195.4707 360.7168 L 195.4707 324.04883 z M 195.4707 360.7168 L 195.4707 365.23633 L 230.79492 365.23633 L 229.5293 360.7168 L 195.4707 360.7168 z M 158.80273 360.7168 L 122.13477 360.7168 L 122.13477 397.38477 L 138.11328 397.38477 L 138.11328 364.02539 L 154.46875 364.02539 L 154.46875 397.38477 L 158.80273 397.38477 L 158.80273 360.7168 z M 158.80273 397.38477 L 158.80273 434.05273 L 187.17969 434.05273 L 187.17969 397.38477 L 158.80273 397.38477 z M 158.80273 434.05273 L 154.46875 434.05273 L 154.46875 470.7207 L 158.80273 470.7207 L 158.80273 434.05273 z M 158.80273 470.7207 L 158.80273 504.90625 C 159.91237 505.95808 161.26658 506.76531 162.80469 507.38867 L 178.84375 507.38867 C 184.36521 505.15093 187.17969 500.20843 187.17969 492.44922 L 187.17969 470.7207 L 158.80273 470.7207 z M 122.13477 397.38477 L 105.40039 397.38477 L 105.40039 434.05273 L 122.13477 434.05273 L 122.13477 397.38477 z M 122.13477 434.05273 L 122.13477 470.7207 L 138.11328 470.7207 L 138.11328 434.05273 L 122.13477 434.05273 z M 122.13477 470.7207 L 105.40039 470.7207 L 105.40039 491.23633 C 105.40039 500.20869 108.83939 505.51705 115.60742 507.38867 L 122.13477 507.38867 L 122.13477 470.7207 z M 122.13477 360.7168 L 122.13477 324.04883 L 85.46875 324.04883 L 85.46875 360.7168 L 122.13477 360.7168 z M 85.46875 360.7168 L 62.691406 360.7168 L 61.785156 364.02539 L 85.46875 364.02539 L 85.46875 360.7168 z M 85.46875 324.04883 L 85.46875 287.38281 L 82.791016 287.38281 L 72.742188 324.04883 L 85.46875 324.04883 z M 85.46875 287.38281 L 122.13477 287.38281 L 122.13477 250.71484 L 92.841797 250.71484 L 85.46875 277.61328 L 85.46875 287.38281 z M 122.13477 287.38281 L 122.13477 324.04883 L 158.80273 324.04883 L 158.80273 287.38281 L 122.13477 287.38281 z M 122.13477 214.04688 L 122.13477 177.37891 L 85.46875 177.37891 L 85.46875 214.04688 L 87.533203 214.04688 L 91.589844 200.4668 L 106.61328 200.4668 L 102.89062 214.04688 L 122.13477 214.04688 z M 85.46875 214.04688 L 57.371094 214.04688 L 48.800781 242.61914 L 48.800781 250.71484 L 76.582031 250.71484 L 85.46875 220.96094 L 85.46875 214.04688 z M 48.800781 250.71484 L 46.371094 250.71484 L 36.585938 283.33594 C 36.10924 284.73529 35.839259 286.08037 35.6875 287.38281 L 48.800781 287.38281 L 48.800781 250.71484 z M 48.800781 287.38281 L 48.800781 304.09766 C 49.294373 304.15711 49.776496 304.28728 50.275391 304.29688 C 57.302324 304.29688 61.907113 300.41992 64.087891 292.54492 L 65.628906 287.38281 L 48.800781 287.38281 z M 85.46875 177.37891 L 85.46875 158.07617 C 83.556015 159.36764 81.674248 160.79067 79.837891 162.42578 C 74.902026 166.99602 71.213047 171.98113 68.759766 177.37891 L 85.46875 177.37891 z M 415.47656 151.375 L 415.47656 177.37891 L 452.14453 177.37891 L 452.14453 151.70703 L 415.47656 151.375 z M 452.14453 177.37891 L 452.14453 214.04688 L 488.81055 214.04688 L 488.81055 177.37891 L 452.14453 177.37891 z M 488.81055 177.37891 L 525.47852 177.37891 L 525.47852 161.28906 C 518.06624 155.68681 509.14993 152.77985 498.42383 152.12695 L 488.81055 152.03906 L 488.81055 177.37891 z M 525.47852 177.37891 L 525.47852 214.04688 L 544.46289 214.04688 L 544.46289 200.10352 C 544.46289 191.84781 542.60569 184.2823 538.96484 177.37891 L 525.47852 177.37891 z M 525.47852 214.04688 L 516.83984 214.04688 L 516.83984 250.71484 L 525.47852 250.71484 L 525.47852 214.04688 z M 525.47852 250.71484 L 525.47852 287.38281 L 544.46289 287.38281 L 544.46289 250.71484 L 525.47852 250.71484 z M 525.47852 287.38281 L 516.83984 287.38281 L 516.83984 307.93164 C 516.83984 316.53197 519.75029 321.68506 525.47852 323.50195 L 525.47852 287.38281 z M 488.81055 214.04688 L 488.81055 250.71484 L 500.48438 250.71484 L 500.48438 214.04688 L 488.81055 214.04688 z M 488.81055 250.71484 L 452.14453 250.71484 L 452.14453 287.38281 L 488.81055 287.38281 L 488.81055 250.71484 z M 488.81055 287.38281 L 488.81055 324.04883 L 500.48438 324.04883 L 500.48438 287.38281 L 488.81055 287.38281 z M 488.81055 324.04883 L 460.50391 324.04883 L 460.50391 360.7168 L 488.81055 360.7168 L 488.81055 324.04883 z M 488.81055 360.7168 L 488.81055 397.38477 L 500.48438 397.38477 L 500.48438 360.7168 L 488.81055 360.7168 z M 488.81055 397.38477 L 460.50391 397.38477 L 460.50391 434.05273 L 488.81055 434.05273 L 488.81055 397.38477 z M 488.81055 434.05273 L 488.81055 470.7207 L 500.48438 470.7207 L 500.48438 434.05273 L 488.81055 434.05273 z M 488.81055 470.7207 L 460.50391 470.7207 L 460.50391 489.66211 C 460.50391 498.75676 463.73918 504.61538 470.06055 507.38867 L 488.81055 507.38867 L 488.81055 470.7207 z M 452.14453 287.38281 L 415.47656 287.38281 L 415.47656 324.04883 L 443.54102 324.04883 L 443.54102 322.46875 L 452.14453 322.46875 L 452.14453 287.38281 z M 415.47656 324.04883 L 404.28711 324.04883 L 404.28711 360.7168 L 415.47656 360.7168 L 415.47656 324.04883 z M 415.47656 360.7168 L 415.47656 397.38477 L 443.54102 397.38477 L 443.54102 360.7168 L 415.47656 360.7168 z M 415.47656 397.38477 L 404.28711 397.38477 L 404.28711 434.05273 L 415.47656 434.05273 L 415.47656 397.38477 z M 415.47656 434.05273 L 415.47656 470.7207 L 443.54102 470.7207 L 443.54102 434.05273 L 415.47656 434.05273 z M 415.47656 470.7207 L 404.28711 470.7207 L 404.28711 489.66211 C 404.28711 498.75676 407.52434 504.61538 413.8457 507.38867 L 415.47656 507.38867 L 415.47656 470.7207 z M 415.47656 287.38281 L 415.47656 250.71484 L 404.28711 250.71484 L 404.28711 287.38281 L 415.47656 287.38281 z M 415.47656 250.71484 L 452.14453 250.71484 L 452.14453 214.04688 L 415.47656 214.04688 L 415.47656 250.71484 z M 415.47656 214.04688 L 415.47656 177.37891 L 378.80859 177.37891 L 378.80859 214.04688 L 387.32617 214.04688 L 387.32617 201.31445 L 404.28711 201.31445 L 404.28711 214.04688 L 415.47656 214.04688 z M 378.80859 214.04688 L 359.09766 214.04688 L 359.09766 250.71484 L 378.80859 250.71484 L 378.80859 214.04688 z M 378.80859 250.71484 L 378.80859 287.38281 L 387.32617 287.38281 L 387.32617 250.71484 L 378.80859 250.71484 z M 378.80859 287.38281 L 359.09766 287.38281 L 359.09766 306.71875 C 359.09766 317.13799 363.94446 322.46875 373.51562 322.46875 C 375.51063 322.46875 377.24584 322.17591 378.80859 321.68555 L 378.80859 287.38281 z M 378.80859 177.37891 L 378.80859 159.3125 C 376.58785 160.86406 374.44946 162.60722 372.42383 164.60547 C 368.55705 168.47225 365.59918 172.74587 363.42578 177.37891 L 378.80859 177.37891 z M 232.13867 206.23633 L 232.13867 214.04688 L 234.48242 214.04688 L 232.13867 206.23633 z M 232.13867 214.04688 L 204.44336 214.04688 L 215.39648 250.71484 L 232.13867 250.71484 L 232.13867 214.04688 z M 232.13867 250.71484 L 232.13867 287.38281 L 256.58594 287.38281 C 256.33216 286.44951 256.07525 285.51539 255.63281 284.54883 L 245.48242 250.71484 L 232.13867 250.71484 z M 232.13867 287.38281 L 226.34766 287.38281 L 228.25195 293.75586 C 229.1408 296.96558 230.45297 299.47566 232.13867 301.36523 L 232.13867 287.38281 z M 527.63672 324.04883 C 528.58378 324.19658 529.58052 324.28711 530.65234 324.28711 C 531.72412 324.28711 532.71899 324.19656 533.66602 324.04883 L 527.63672 324.04883 z " opacity="0.8" fill="none" stroke="#ffffff" vector-effect="none" stroke-linejoin="round" stroke-width="64"/>
 <path id="flowRoot3192" d="M 283.49805 70.710938 L 283.49805 104.04492 L 305.47266 104.04492 L 305.47266 70.710938 L 283.49805 70.710938 z M 305.47266 104.04492 L 305.47266 140.71094 L 318.14648 140.71094 L 318.14648 104.04492 L 305.47266 104.04492 z M 305.47266 140.71094 L 283.49805 140.71094 L 283.49805 177.37891 L 305.47266 177.37891 L 305.47266 140.71094 z M 305.47266 177.37891 L 305.47266 214.04688 L 318.14648 214.04688 L 318.14648 177.37891 L 305.47266 177.37891 z M 305.47266 214.04688 L 283.49805 214.04688 L 283.49805 250.71484 L 305.47266 250.71484 L 305.47266 214.04688 z M 305.47266 250.71484 L 305.47266 287.38281 L 318.14648 287.38281 L 318.14648 250.71484 L 305.47266 250.71484 z M 305.47266 287.38281 L 283.49805 287.38281 L 283.49805 324.04883 L 305.47266 324.04883 L 305.47266 287.38281 z M 305.47266 324.04883 L 305.47266 360.7168 L 318.14648 360.7168 L 318.14648 324.04883 L 305.47266 324.04883 z M 305.47266 360.7168 L 283.49805 360.7168 L 283.49805 397.38477 L 305.47266 397.38477 L 305.47266 360.7168 z M 305.47266 397.38477 L 305.47266 434.05273 L 318.14648 434.05273 L 318.14648 397.38477 L 305.47266 397.38477 z M 305.47266 434.05273 L 283.49805 434.05273 L 283.49805 470.7207 L 305.47266 470.7207 L 305.47266 434.05273 z M 305.47266 470.7207 L 305.47266 507.38867 L 318.14648 507.38867 L 318.14648 470.7207 L 305.47266 470.7207 z M 452.14453 73.376953 C 432.89477 74.845517 419.69933 87.359867 417.38086 104.04492 L 452.14453 104.04492 L 452.14453 73.376953 z M 452.14453 104.04492 L 452.14453 140.71094 L 465.82422 140.71094 C 478.81114 134.99157 487.20714 122.92942 487.40039 108.75391 C 487.28291 107.11609 486.94551 105.59715 486.66992 104.04492 L 452.14453 104.04492 z M 452.14453 140.71094 L 437.78516 140.71094 C 442.17638 142.79683 446.99966 144.05839 452.14453 144.13086 L 452.14453 140.71094 z M 145.625 73.619141 C 136.15491 74.35018 128.17682 77.986014 122.13477 83.388672 L 122.13477 104.04492 L 158.80273 104.04492 L 158.80273 76.207031 C 154.74686 74.59887 150.32369 73.68087 145.625 73.619141 z M 158.80273 104.04492 L 158.80273 140.71094 L 161.02734 140.71094 C 173.38163 134.87111 181.41201 123.35412 181.60742 109.48047 C 181.4673 107.58694 181.09714 105.82209 180.75195 104.04492 L 158.80273 104.04492 z M 158.80273 140.71094 L 130.03516 140.71094 C 134.747 143.15383 139.98374 144.65943 145.625 144.73633 C 150.3763 144.39886 154.76929 143.2931 158.80273 141.67773 L 158.80273 140.71094 z M 122.13477 104.04492 L 110.82617 104.04492 C 110.53823 105.82702 110.27331 107.61917 110.24805 109.48047 C 111.07588 120.04692 115.51216 128.95801 122.13477 135.20312 L 122.13477 104.04492 z M 122.13477 150.78516 L 122.13477 177.37891 L 158.80273 177.37891 L 158.80273 151.10352 L 122.13477 150.78516 z M 158.80273 177.37891 L 158.80273 214.04688 L 188.46289 214.04688 L 185 201.67969 L 195.4707 201.67969 L 195.4707 177.37891 L 158.80273 177.37891 z M 195.4707 177.37891 L 222.43555 177.37891 C 219.73118 172.68822 215.8159 168.10168 210.44141 163.63672 C 205.67683 159.7165 200.67082 156.79008 195.4707 154.76172 L 195.4707 177.37891 z M 158.80273 214.04688 L 122.13477 214.04688 L 122.13477 250.71484 L 158.80273 250.71484 L 158.80273 214.04688 z M 158.80273 250.71484 L 158.80273 287.38281 L 195.4707 287.38281 L 195.4707 250.71484 L 158.80273 250.71484 z M 195.4707 250.71484 L 198.73047 250.71484 L 195.4707 239.07617 L 195.4707 250.71484 z M 195.4707 287.38281 L 195.4707 324.04883 L 219.26172 324.04883 L 208.99609 287.38281 L 195.4707 287.38281 z M 195.4707 324.04883 L 158.80273 324.04883 L 158.80273 360.7168 L 195.4707 360.7168 L 195.4707 324.04883 z M 195.4707 360.7168 L 195.4707 365.23633 L 230.79492 365.23633 L 229.5293 360.7168 L 195.4707 360.7168 z M 158.80273 360.7168 L 122.13477 360.7168 L 122.13477 397.38477 L 138.11328 397.38477 L 138.11328 364.02539 L 154.46875 364.02539 L 154.46875 397.38477 L 158.80273 397.38477 L 158.80273 360.7168 z M 158.80273 397.38477 L 158.80273 434.05273 L 187.17969 434.05273 L 187.17969 397.38477 L 158.80273 397.38477 z M 158.80273 434.05273 L 154.46875 434.05273 L 154.46875 470.7207 L 158.80273 470.7207 L 158.80273 434.05273 z M 158.80273 470.7207 L 158.80273 504.90625 C 159.91237 505.95808 161.26658 506.76531 162.80469 507.38867 L 178.84375 507.38867 C 184.36521 505.15093 187.17969 500.20843 187.17969 492.44922 L 187.17969 470.7207 L 158.80273 470.7207 z M 122.13477 397.38477 L 105.40039 397.38477 L 105.40039 434.05273 L 122.13477 434.05273 L 122.13477 397.38477 z M 122.13477 434.05273 L 122.13477 470.7207 L 138.11328 470.7207 L 138.11328 434.05273 L 122.13477 434.05273 z M 122.13477 470.7207 L 105.40039 470.7207 L 105.40039 491.23633 C 105.40039 500.20869 108.83939 505.51705 115.60742 507.38867 L 122.13477 507.38867 L 122.13477 470.7207 z M 122.13477 360.7168 L 122.13477 324.04883 L 85.46875 324.04883 L 85.46875 360.7168 L 122.13477 360.7168 z M 85.46875 360.7168 L 62.691406 360.7168 L 61.785156 364.02539 L 85.46875 364.02539 L 85.46875 360.7168 z M 85.46875 324.04883 L 85.46875 287.38281 L 82.791016 287.38281 L 72.742188 324.04883 L 85.46875 324.04883 z M 85.46875 287.38281 L 122.13477 287.38281 L 122.13477 250.71484 L 92.841797 250.71484 L 85.46875 277.61328 L 85.46875 287.38281 z M 122.13477 287.38281 L 122.13477 324.04883 L 158.80273 324.04883 L 158.80273 287.38281 L 122.13477 287.38281 z M 122.13477 214.04688 L 122.13477 177.37891 L 85.46875 177.37891 L 85.46875 214.04688 L 87.533203 214.04688 L 91.589844 200.4668 L 106.61328 200.4668 L 102.89062 214.04688 L 122.13477 214.04688 z M 85.46875 214.04688 L 57.371094 214.04688 L 48.800781 242.61914 L 48.800781 250.71484 L 76.582031 250.71484 L 85.46875 220.96094 L 85.46875 214.04688 z M 48.800781 250.71484 L 46.371094 250.71484 L 36.585938 283.33594 C 36.10924 284.73529 35.839259 286.08037 35.6875 287.38281 L 48.800781 287.38281 L 48.800781 250.71484 z M 48.800781 287.38281 L 48.800781 304.09766 C 49.294373 304.15711 49.776496 304.28728 50.275391 304.29688 C 57.302324 304.29688 61.907113 300.41992 64.087891 292.54492 L 65.628906 287.38281 L 48.800781 287.38281 z M 85.46875 177.37891 L 85.46875 158.07617 C 83.556015 159.36764 81.674248 160.79067 79.837891 162.42578 C 74.902026 166.99602 71.213047 171.98113 68.759766 177.37891 L 85.46875 177.37891 z M 415.47656 151.375 L 415.47656 177.37891 L 452.14453 177.37891 L 452.14453 151.70703 L 415.47656 151.375 z M 452.14453 177.37891 L 452.14453 214.04688 L 488.81055 214.04688 L 488.81055 177.37891 L 452.14453 177.37891 z M 488.81055 177.37891 L 525.47852 177.37891 L 525.47852 161.28906 C 518.06624 155.68681 509.14993 152.77985 498.42383 152.12695 L 488.81055 152.03906 L 488.81055 177.37891 z M 525.47852 177.37891 L 525.47852 214.04688 L 544.46289 214.04688 L 544.46289 200.10352 C 544.46289 191.84781 542.60569 184.2823 538.96484 177.37891 L 525.47852 177.37891 z M 525.47852 214.04688 L 516.83984 214.04688 L 516.83984 250.71484 L 525.47852 250.71484 L 525.47852 214.04688 z M 525.47852 250.71484 L 525.47852 287.38281 L 544.46289 287.38281 L 544.46289 250.71484 L 525.47852 250.71484 z M 525.47852 287.38281 L 516.83984 287.38281 L 516.83984 307.93164 C 516.83984 316.53197 519.75029 321.68506 525.47852 323.50195 L 525.47852 287.38281 z M 488.81055 214.04688 L 488.81055 250.71484 L 500.48438 250.71484 L 500.48438 214.04688 L 488.81055 214.04688 z M 488.81055 250.71484 L 452.14453 250.71484 L 452.14453 287.38281 L 488.81055 287.38281 L 488.81055 250.71484 z M 488.81055 287.38281 L 488.81055 324.04883 L 500.48438 324.04883 L 500.48438 287.38281 L 488.81055 287.38281 z M 488.81055 324.04883 L 460.50391 324.04883 L 460.50391 360.7168 L 488.81055 360.7168 L 488.81055 324.04883 z M 488.81055 360.7168 L 488.81055 397.38477 L 500.48438 397.38477 L 500.48438 360.7168 L 488.81055 360.7168 z M 488.81055 397.38477 L 460.50391 397.38477 L 460.50391 434.05273 L 488.81055 434.05273 L 488.81055 397.38477 z M 488.81055 434.05273 L 488.81055 470.7207 L 500.48438 470.7207 L 500.48438 434.05273 L 488.81055 434.05273 z M 488.81055 470.7207 L 460.50391 470.7207 L 460.50391 489.66211 C 460.50391 498.75676 463.73918 504.61538 470.06055 507.38867 L 488.81055 507.38867 L 488.81055 470.7207 z M 452.14453 287.38281 L 415.47656 287.38281 L 415.47656 324.04883 L 443.54102 324.04883 L 443.54102 322.46875 L 452.14453 322.46875 L 452.14453 287.38281 z M 415.47656 324.04883 L 404.28711 324.04883 L 404.28711 360.7168 L 415.47656 360.7168 L 415.47656 324.04883 z M 415.47656 360.7168 L 415.47656 397.38477 L 443.54102 397.38477 L 443.54102 360.7168 L 415.47656 360.7168 z M 415.47656 397.38477 L 404.28711 397.38477 L 404.28711 434.05273 L 415.47656 434.05273 L 415.47656 397.38477 z M 415.47656 434.05273 L 415.47656 470.7207 L 443.54102 470.7207 L 443.54102 434.05273 L 415.47656 434.05273 z M 415.47656 470.7207 L 404.28711 470.7207 L 404.28711 489.66211 C 404.28711 498.75676 407.52434 504.61538 413.8457 507.38867 L 415.47656 507.38867 L 415.47656 470.7207 z M 415.47656 287.38281 L 415.47656 250.71484 L 404.28711 250.71484 L 404.28711 287.38281 L 415.47656 287.38281 z M 415.47656 250.71484 L 452.14453 250.71484 L 452.14453 214.04688 L 415.47656 214.04688 L 415.47656 250.71484 z M 415.47656 214.04688 L 415.47656 177.37891 L 378.80859 177.37891 L 378.80859 214.04688 L 387.32617 214.04688 L 387.32617 201.31445 L 404.28711 201.31445 L 404.28711 214.04688 L 415.47656 214.04688 z M 378.80859 214.04688 L 359.09766 214.04688 L 359.09766 250.71484 L 378.80859 250.71484 L 378.80859 214.04688 z M 378.80859 250.71484 L 378.80859 287.38281 L 387.32617 287.38281 L 387.32617 250.71484 L 378.80859 250.71484 z M 378.80859 287.38281 L 359.09766 287.38281 L 359.09766 306.71875 C 359.09766 317.13799 363.94446 322.46875 373.51562 322.46875 C 375.51063 322.46875 377.24584 322.17591 378.80859 321.68555 L 378.80859 287.38281 z M 378.80859 177.37891 L 378.80859 159.3125 C 376.58785 160.86406 374.44946 162.60722 372.42383 164.60547 C 368.55705 168.47225 365.59918 172.74587 363.42578 177.37891 L 378.80859 177.37891 z M 232.13867 206.23633 L 232.13867 214.04688 L 234.48242 214.04688 L 232.13867 206.23633 z M 232.13867 214.04688 L 204.44336 214.04688 L 215.39648 250.71484 L 232.13867 250.71484 L 232.13867 214.04688 z M 232.13867 250.71484 L 232.13867 287.38281 L 256.58594 287.38281 C 256.33216 286.44951 256.07525 285.51539 255.63281 284.54883 L 245.48242 250.71484 L 232.13867 250.71484 z M 232.13867 287.38281 L 226.34766 287.38281 L 228.25195 293.75586 C 229.1408 296.96558 230.45297 299.47566 232.13867 301.36523 L 232.13867 287.38281 z M 527.63672 324.04883 C 528.58378 324.19658 529.58052 324.28711 530.65234 324.28711 C 531.72412 324.28711 532.71899 324.19656 533.66602 324.04883 L 527.63672 324.04883 z " stroke-width="1.21"/>
</svg>
